<?xml version="1.0" encoding="UTF-8" standalone="no"?>
<svg
   xmlns:dc="http://purl.org/dc/elements/1.1/"
   xmlns:cc="http://creativecommons.org/ns#"
   xmlns:rdf="http://www.w3.org/1999/02/22-rdf-syntax-ns#"
   xmlns:svg="http://www.w3.org/2000/svg"
   xmlns="http://www.w3.org/2000/svg"
   xmlns:sodipodi="http://sodipodi.sourceforge.net/DTD/sodipodi-0.dtd"
   xmlns:inkscape="http://www.inkscape.org/namespaces/inkscape"
   version="1.0"
   width="1500.000000pt"
   height="808.000000pt"
   viewBox="0 0 1500.000000 808.000000"
   preserveAspectRatio="xMidYMid meet"
   id="svg42"
   sodipodi:docname="sg.svg"
   inkscape:version="1.0.2-2 (e86c870879, 2021-01-15)">
  <metadata
     id="metadata48">
    <rdf:RDF>
      <cc:Work
         rdf:about="">
        <dc:format>image/svg+xml</dc:format>
        <dc:type
           rdf:resource="http://purl.org/dc/dcmitype/StillImage" />
        <dc:title></dc:title>
      </cc:Work>
    </rdf:RDF>
  </metadata>
  <defs
     id="defs46" />
  <sodipodi:namedview
     pagecolor="#ffffff"
     bordercolor="#666666"
     borderopacity="1"
     objecttolerance="10"
     gridtolerance="10"
     guidetolerance="10"
     inkscape:pageopacity="0"
     inkscape:pageshadow="2"
     inkscape:window-width="2560"
     inkscape:window-height="1377"
     id="namedview44"
     showgrid="false"
     inkscape:zoom="0.5275"
     inkscape:cx="624.64455"
     inkscape:cy="538.66667"
     inkscape:window-x="-8"
     inkscape:window-y="60"
     inkscape:window-maximized="1"
     inkscape:current-layer="svg42" />
  <g
     transform="translate(0.000000,808.000000) scale(0.100000,-0.100000)"
     fill="#000000"
     stroke="none"
     id="g40">
    <path
       d="M0 4045 l0 -4035 7500 0 7500 0 0 4035 0 4035 -7500 0 -7500 0 0 -4035z m6920 0 l0 -3585 -3235 0 -3235 0 0 3585 0 3585 3235 0 3235 0 0 -3585z m7630 0 l0 -3585 -3590 0 -3590 0 0 3585 0 3585 3590 0 3590 0 0 -3585z"
       id="path30"
       style="opacity:1;fill:#183a37;fill-opacity:1" />
    <path
       d="M2466 5539 c-191 -26 -291 -72 -401 -183 -92 -93 -132 -160 -170 -291 -56 -191 -57 -217 -62 -940 -5 -682 0 -813 33 -975 24 -117 60 -219 101 -290 50 -84 162 -197 238 -237 127 -67 330 -100 521 -83 132 12 182 24 280 71 64 30 94 53 150 111 146 154 199 336 211 726 l6 212 -197 0 -196 0 0 -197 c0 -326 -24 -448 -105 -528 -58 -58 -124 -80 -245 -79 -205 0 -308 74 -356 257 -31 117 -36 285 -31 1017 5 771 7 815 55 922 28 65 84 122 145 149 72 32 247 39 333 14 84 -24 144 -86 174 -180 20 -63 23 -96 28 -317 l4 -248 196 0 195 0 -6 213 c-3 116 -13 247 -21 289 -58 308 -209 485 -467 548 -99 24 -309 34 -413 19z"
       id="path32"
       style="fill:#067834;fill-opacity:1" />
    <path
       d="M3770 4045 l0 -1476 488 4 c429 3 494 6 547 21 256 76 408 239 478 513 19 78 22 112 21 303 0 240 -12 306 -76 438 -64 132 -218 257 -362 293 -53 13 -52 24 2 33 55 8 171 69 209 108 51 53 99 142 124 231 21 73 24 102 24 272 -1 148 -4 206 -18 260 -60 238 -207 381 -457 446 -80 21 -110 23 -532 26 l-448 4 0 -1476z m845 1155 c122 -24 194 -81 236 -187 21 -53 23 -74 24 -233 0 -153 -3 -184 -22 -246 -27 -86 -69 -146 -129 -184 -73 -46 -158 -60 -363 -60 l-181 0 0 466 0 467 188 -6 c103 -3 214 -10 247 -17z m-43 -1235 c95 -20 150 -46 208 -101 99 -92 140 -227 140 -458 0 -349 -83 -494 -306 -535 -32 -6 -142 -11 -246 -11 l-188 0 0 560 0 560 163 0 c101 0 187 -6 229 -15z"
       id="path34"
       style="fill:#067834;fill-opacity:1" />
    <path
       d="M9990 6186 c-84 -55 -143 -147 -182 -283 -20 -69 -23 -101 -23 -273 0 -117 5 -222 13 -262 12 -62 11 -71 -7 -106 -11 -22 -31 -46 -44 -55 -36 -23 -66 -96 -80 -195 -6 -48 -16 -86 -22 -85 -5 1 -15 20 -20 42 -6 21 -13 42 -16 46 -18 17 -32 -74 -37 -235 -5 -192 -7 -202 -72 -280 -55 -66 -67 -96 -73 -187 -7 -87 -17 -115 -72 -192 -29 -41 -145 -243 -145 -254 0 -2 33 -20 74 -41 40 -21 88 -50 106 -64 l32 -27 -18 -39 c-21 -43 -24 -38 56 -89 25 -16 47 -45 75 -101 26 -51 49 -83 67 -92 27 -14 32 -23 42 -85 7 -42 29 -65 71 -75 46 -10 55 -23 55 -70 0 -56 24 -74 100 -74 61 0 73 -6 112 -60 14 -19 61 -69 104 -110 331 -316 390 -381 539 -594 266 -380 375 -506 440 -506 63 0 153 100 375 415 210 299 311 415 550 631 65 58 135 129 156 158 50 66 49 66 114 66 76 0 100 18 100 74 0 48 10 60 57 71 40 8 73 48 73 86 0 41 9 58 41 75 20 10 39 36 63 89 30 65 41 79 90 110 60 38 62 42 44 91 -16 44 -2 59 107 113 47 24 85 45 85 48 0 5 -108 187 -179 300 -34 56 -39 70 -43 146 -6 93 -11 106 -79 194 -62 81 -73 117 -66 220 5 91 -6 216 -24 272 l-12 36 -13 -49 c-14 -54 -30 -78 -38 -55 -3 8 -9 51 -15 97 -12 96 -27 130 -89 196 l-45 48 7 67 c3 36 11 113 17 171 25 242 -27 491 -127 609 -38 45 -111 91 -146 91 -40 0 -90 -49 -136 -133 -45 -82 -105 -142 -243 -244 -53 -39 -115 -94 -139 -122 -72 -85 -69 -84 -217 -54 -184 38 -367 38 -548 -1 l-130 -28 -65 70 c-36 38 -118 108 -183 156 -118 88 -180 153 -219 230 -60 117 -124 150 -198 102z m47 -180 c15 -13 59 -76 98 -140 67 -113 89 -143 184 -258 42 -51 43 -54 39 -115 -4 -71 -21 -96 -83 -124 -55 -25 -110 -24 -136 2 -17 17 -20 29 -16 72 3 29 8 66 12 82 8 35 -27 186 -51 223 -12 19 -22 23 -52 20 -58 -5 -67 -33 -67 -218 -1 -137 -7 -190 -22 -190 -16 0 -44 25 -63 56 -20 31 -24 57 -32 206 -10 190 -7 204 49 299 41 69 77 109 97 109 8 0 27 -11 43 -24z m2140 -10 c36 -41 91 -135 103 -176 5 -17 5 -107 1 -200 -7 -167 -8 -171 -37 -213 -62 -88 -90 -49 -79 111 11 180 -9 255 -70 255 -42 0 -60 -30 -86 -138 -19 -80 -21 -100 -11 -128 19 -52 15 -114 -8 -137 -25 -25 -81 -26 -135 -1 -64 29 -79 53 -83 131 l-4 69 44 48 c74 81 113 134 173 238 60 103 121 175 148 175 8 0 28 -15 44 -34z m-1530 -1071 c97 -49 193 -181 193 -267 0 -21 7 -85 16 -144 18 -122 15 -145 -27 -234 -27 -58 -30 -75 -33 -175 -1 -60 -11 -158 -21 -218 -10 -59 -15 -110 -12 -113 19 -19 99 -24 195 -13 82 10 117 10 177 0 74 -12 180 -7 190 9 3 5 -4 64 -15 132 -11 68 -20 165 -20 216 0 82 -4 100 -31 160 -40 89 -44 129 -25 248 9 56 16 118 16 138 0 85 93 212 193 263 90 45 189 14 253 -79 28 -40 29 -40 81 -35 71 7 94 -11 100 -80 5 -47 3 -52 -21 -68 -22 -15 -39 -17 -104 -11 -75 7 -87 12 -144 57 -38 31 -69 19 -139 -51 -72 -71 -83 -97 -64 -143 13 -32 13 -36 -10 -68 -24 -31 -35 -99 -17 -99 5 0 19 12 33 26 22 23 29 25 79 21 87 -9 138 10 177 63 51 71 61 80 91 80 15 1 38 7 52 14 32 18 56 6 65 -33 9 -44 -17 -96 -64 -126 -41 -25 -44 -30 -45 -75 -1 -18 -11 -29 -38 -42 -21 -10 -38 -25 -38 -33 0 -19 -23 -19 -60 0 -28 14 -32 14 -67 -8 -21 -12 -51 -29 -68 -37 -22 -12 -31 -25 -38 -55 -13 -63 -1 -97 68 -194 35 -50 70 -101 76 -112 16 -31 26 -12 31 57 4 54 9 67 52 122 30 40 57 64 74 68 89 19 108 33 131 91 14 34 47 69 83 87 16 8 27 29 38 72 9 33 27 75 39 93 21 29 23 43 25 171 1 120 3 142 19 157 18 17 19 17 38 -6 10 -13 22 -35 26 -50 3 -14 17 -45 30 -68 l25 -43 -16 -91 c-18 -103 -16 -109 45 -175 29 -32 39 -53 44 -90 3 -27 13 -64 21 -82 14 -33 6 -72 -16 -72 -5 0 -16 -10 -24 -23 -13 -20 -14 -30 -1 -82 25 -107 15 -154 -48 -223 -19 -20 -22 -21 -43 -7 -13 8 -26 15 -29 15 -3 0 -5 -37 -5 -81 l0 -82 -44 6 -45 6 -7 -44 c-5 -34 -14 -50 -35 -65 -28 -20 -28 -22 -28 -121 0 -141 -10 -216 -36 -275 -13 -29 -26 -65 -29 -82 -4 -16 -18 -40 -32 -53 -22 -21 -26 -21 -40 -7 -8 8 -21 48 -28 89 l-13 74 -11 -40 c-6 -22 -14 -57 -18 -78 -8 -45 -27 -56 -53 -33 -18 16 -20 15 -39 -19 -24 -40 -37 -43 -54 -16 -12 19 -14 18 -59 -22 -26 -23 -54 -48 -63 -55 -9 -7 -16 -25 -16 -40 0 -44 -20 -65 -52 -53 -25 9 -26 8 -33 -27 -4 -20 -11 -45 -16 -54 -11 -20 -49 -24 -66 -7 -11 11 -14 3 -29 -86 -9 -52 -20 -72 -44 -80 -27 -9 -76 -113 -102 -220 -16 -66 -29 -97 -49 -117 -60 -60 -99 -23 -141 129 -33 122 -69 196 -103 211 -24 11 -45 62 -45 112 0 38 -13 52 -42 45 -33 -8 -56 15 -64 66 -7 44 -7 43 -36 28 -27 -15 -48 10 -48 58 0 23 -6 35 -22 44 -13 6 -42 29 -64 51 -40 38 -42 39 -49 19 -10 -32 -36 -22 -60 21 -20 35 -22 36 -33 17 -26 -42 -53 -12 -68 76 -12 72 -21 71 -34 -4 -6 -39 -19 -78 -27 -87 -14 -14 -18 -13 -39 7 -13 12 -26 35 -29 51 -4 17 -18 54 -31 83 -19 40 -26 81 -34 174 -5 67 -6 137 -3 157 5 31 2 39 -25 64 -21 19 -34 42 -38 69 l-6 40 -44 -6 -44 -6 0 82 c0 44 -3 81 -7 81 -3 0 -15 -7 -25 -17 -17 -15 -19 -15 -39 3 -12 10 -32 38 -46 62 -27 45 -27 55 -7 195 6 46 5 49 -31 82 -30 28 -36 39 -30 57 4 13 10 49 15 80 8 58 27 94 74 137 30 28 33 61 14 170 -10 61 -10 72 5 95 9 14 26 50 37 80 22 59 45 76 69 52 12 -12 15 -45 17 -156 1 -126 3 -144 22 -170 12 -15 26 -50 33 -77 13 -56 34 -93 52 -93 19 0 51 -37 76 -87 25 -50 50 -68 111 -82 45 -10 61 -24 115 -102 18 -26 27 -55 32 -102 3 -37 9 -67 12 -67 9 1 149 211 160 241 5 15 7 48 3 75 -6 40 -12 51 -37 63 -17 9 -47 26 -67 38 -36 22 -40 22 -74 8 -46 -19 -65 -19 -58 0 4 10 -7 19 -36 31 -37 15 -41 19 -35 43 6 23 -1 33 -50 76 -47 42 -57 57 -62 92 -4 33 -1 45 16 62 20 20 23 20 51 6 16 -8 38 -15 49 -15 34 0 51 -12 70 -49 39 -75 99 -103 198 -94 42 4 53 1 80 -21 16 -14 33 -23 37 -19 14 14 4 58 -20 90 -23 30 -24 36 -13 67 18 49 7 74 -63 144 -86 87 -95 88 -178 23 -18 -14 -48 -22 -107 -27 -78 -6 -82 -5 -107 19 -21 21 -25 32 -19 59 13 72 38 92 99 78 38 -9 40 -9 90 45 54 58 119 94 170 95 16 0 53 -11 81 -25z m-57 -377 c22 -24 27 -77 8 -96 -16 -16 -61 -15 -103 2 -42 18 -55 55 -31 91 22 34 95 36 126 3z m1064 6 c46 -46 -8 -114 -90 -114 -52 0 -72 65 -32 107 26 28 97 32 122 7z"
       id="path36"
       style="fill:#067834;fill-opacity:1" />
    <path
       d="M10414 3638 c-13 -56 -6 -146 14 -190 19 -43 90 -131 127 -157 54 -40 83 -80 105 -146 27 -85 34 -93 85 -115 33 -14 197 -31 320 -32 91 -2 288 18 320 32 52 22 61 33 85 112 23 74 46 107 94 137 46 29 127 135 148 195 20 59 22 105 7 159 -8 29 -15 37 -33 37 -18 0 -25 -8 -34 -39 -7 -21 -12 -48 -12 -59 0 -28 -42 -39 -84 -24 -16 7 -32 9 -35 7 -3 -3 -6 -37 -7 -75 -3 -75 -9 -89 -88 -185 -63 -77 -73 -83 -99 -56 -22 21 -22 25 -17 171 2 61 -1 83 -19 118 -32 63 -57 70 -236 68 -172 -2 -192 -9 -220 -78 -12 -32 -16 -67 -13 -149 3 -100 1 -110 -18 -130 -27 -27 -37 -21 -101 57 -71 85 -85 116 -87 193 -1 60 -3 66 -21 62 -51 -9 -88 -5 -96 9 -4 8 -13 36 -20 63 -10 39 -16 47 -35 47 -17 0 -24 -7 -30 -32z"
       id="path38"
       style="fill:#067834;fill-opacity:1" />
  </g>
  <path
     style="opacity:1;fill:#067834;fill-opacity:1;stroke-width:0.252133"
     d="M -0.47722464,538.19273 0,-0.66982622 h 1000 1000 l 0.4772,538.86255622 0.4773,538.86257 H 1000 -0.95444948 Z M 922.27488,537.7188 V 60.941548 H 491.94313 61.611374 V 537.7188 1014.4961 H 491.94313 922.27488 Z m 1016.11372,0 V 60.941548 H 1460.6635 982.93839 V 537.7188 1014.4961 h 477.72511 477.7251 z"
     id="path967"
     transform="scale(0.74999999)" />
</svg>
